<svg width="39" height="44" viewBox="0 0 39 44" fill="none" xmlns="http://www.w3.org/2000/svg">
<path d="M37.0001 2L35.0557 4.10526" stroke="white" stroke-width="3" stroke-linecap="round" stroke-linejoin="round"/>
<path d="M2 2L3.94444 4.10526" stroke="white" stroke-width="3" stroke-linecap="round" stroke-linejoin="round"/>
<path d="M37.0001 31.4737L35.0557 29.3684" stroke="white" stroke-width="3" stroke-linecap="round" stroke-linejoin="round"/>
<path d="M2 31.4737L3.94444 29.3684" stroke="white" stroke-width="3" stroke-linecap="round" stroke-linejoin="round"/>
<path d="M13.666 35.6842H25.3327" stroke="white" stroke-width="3" stroke-linecap="round" stroke-linejoin="round"/>
<path d="M15.6118 42H23.3896" stroke="white" stroke-width="3" stroke-linecap="round" stroke-linejoin="round"/>
<path d="M19.4997 4.10522C11.7217 4.10522 7.73983 8.2111 7.83315 14.6315C7.87863 17.7618 8.80508 19.8947 10.7498 22C12.6945 24.1052 13.6668 25.1578 13.6665 29.3684H25.333C25.3334 25.1581 26.3056 24.1052 28.2495 22.0002C30.1937 19.8949 31.121 17.7618 31.1663 14.6315C31.2597 8.2111 27.2779 4.10522 19.4997 4.10522Z" stroke="white" stroke-width="3" stroke-linecap="round" stroke-linejoin="round"/>
</svg>
