<svg width="264" height="121" viewBox="0 0 264 121" fill="none" xmlns="http://www.w3.org/2000/svg">
<path d="M58.9595 69.2455V87.1445M58.9595 87.1445V117H104.8V87.1445M58.9595 87.1445H104.8M104.8 87.1445V67.2593M196.401 4.98552H157.471M196.401 55.6161L157.471 4.98552M245.441 55.6161V30.3008V4.98552H202.112M118.542 4.98552H157.471M157.471 4.98552L118.542 55.6161M260 1V55.6161M206.603 14.9493C206.603 34.7218 206.603 55.6161 206.603 55.6161M93.8337 55.6161L54.9043 4.98552M3 4.98552H54.9043M54.9043 4.98552L3 61.281M54.9043 4.98552H109.295M104.8 14.9493C104.8 34.7218 104.304 55.6161 104.304 55.6161" stroke="white" stroke-opacity="0.5" stroke-width="8"/>
</svg>
