<svg width="15" height="34" viewBox="0 0 15 34" fill="none" xmlns="http://www.w3.org/2000/svg">
<mask id="path-1-outside-1_195_231" maskUnits="userSpaceOnUse" x="0.702637" y="0" width="14" height="34" fill="black">
<rect fill="white" x="0.702637" width="14" height="34"/>
<path fill-rule="evenodd" clip-rule="evenodd" d="M7.57462 2C6.44954 2 5.53749 2.91206 5.53749 4.03713V22.0105C5.53749 22.175 5.55699 22.3349 5.5938 22.4881C3.89025 23.2623 2.70264 25.0047 2.70264 27.0301C2.70264 29.7748 4.88364 31.9999 7.57404 31.9999C10.2644 31.9999 12.4454 29.7748 12.4454 27.0301C12.4454 25.0051 11.2583 23.263 9.55532 22.4886C9.59221 22.3353 9.61175 22.1751 9.61175 22.0105V4.03713C9.61175 2.91205 8.6997 2 7.57462 2Z"/>
</mask>
<path d="M5.5938 22.4881L6.42126 24.3089L7.92411 23.626L7.53846 22.0209L5.5938 22.4881ZM9.55532 22.4886L7.61079 22.0209L7.22473 23.6259L8.72742 24.3092L9.55532 22.4886ZM7.53749 4.03713C7.53749 4.02832 7.53888 4.02495 7.53959 4.02329C7.54085 4.0203 7.54355 4.01569 7.54837 4.01087C7.55318 4.00606 7.55779 4.00336 7.56078 4.0021C7.56244 4.00139 7.56581 4 7.57462 4V0C5.34497 0 3.53749 1.80749 3.53749 4.03713H7.53749ZM7.53749 22.0105V4.03713H3.53749V22.0105H7.53749ZM7.53846 22.0209C7.53814 22.0196 7.53749 22.0164 7.53749 22.0105H3.53749C3.53749 22.3335 3.57584 22.6503 3.64915 22.9554L7.53846 22.0209ZM4.70264 27.0301C4.70264 25.8004 5.42143 24.7633 6.42126 24.3089L4.76634 20.6673C2.35907 21.7613 0.702637 24.2091 0.702637 27.0301H4.70264ZM7.57404 29.9999C6.0257 29.9999 4.70264 28.7081 4.70264 27.0301H0.702637C0.702637 30.8415 3.74157 33.9999 7.57404 33.9999V29.9999ZM10.4454 27.0301C10.4454 28.7081 9.12237 29.9999 7.57404 29.9999V33.9999C11.4065 33.9999 14.4454 30.8415 14.4454 27.0301H10.4454ZM8.72742 24.3092C9.72694 24.7637 10.4454 25.8006 10.4454 27.0301H14.4454C14.4454 24.2097 12.7897 21.7623 10.3832 20.668L8.72742 24.3092ZM7.61175 22.0105C7.61175 22.0164 7.6111 22.0196 7.61079 22.0209L11.4999 22.9563C11.5733 22.651 11.6118 22.3339 11.6118 22.0105H7.61175ZM7.61175 4.03713V22.0105H11.6118V4.03713H7.61175ZM7.57462 4C7.58344 4 7.5868 4.00139 7.58846 4.0021C7.59145 4.00336 7.59606 4.00606 7.60088 4.01088C7.60569 4.01569 7.60839 4.0203 7.60965 4.02329C7.61036 4.02495 7.61175 4.02832 7.61175 4.03713H11.6118C11.6118 1.80749 9.80427 0 7.57462 0V4Z" fill="white" mask="url(#path-1-outside-1_195_231)"/>
<ellipse cx="7.48574" cy="27.1186" rx="2.65713" ry="2.71077" fill="white"/>
<rect x="7.23584" y="11.5094" width="0.67769" height="13.1503" fill="white" stroke="white" stroke-width="0.5"/>
</svg>
